<?xml version="1.0" encoding="UTF-8" standalone="no"?>
<!-- Created with Inkscape (http://www.inkscape.org/) -->

<svg
   width="19in"
   height="19in"
   viewBox="0 0 482.60001 482.6"
   version="1.1"
   id="svg5"
   sodipodi:docname="black-1-8in-19x19.svg"
   inkscape:version="1.4.2 (ebf0e940, 2025-05-08)"
   xmlns:inkscape="http://www.inkscape.org/namespaces/inkscape"
   xmlns:sodipodi="http://sodipodi.sourceforge.net/DTD/sodipodi-0.dtd"
   xmlns="http://www.w3.org/2000/svg"
   xmlns:svg="http://www.w3.org/2000/svg">
  <sodipodi:namedview
     id="namedview1"
     pagecolor="#ffffff"
     bordercolor="#000000"
     borderopacity="0.25"
     inkscape:showpageshadow="2"
     inkscape:pageopacity="0.0"
     inkscape:pagecheckerboard="0"
     inkscape:deskcolor="#d1d1d1"
     inkscape:document-units="in"
     inkscape:zoom="0.28860322"
     inkscape:cx="578.64912"
     inkscape:cy="736.30501"
     inkscape:window-width="1728"
     inkscape:window-height="1056"
     inkscape:window-x="0"
     inkscape:window-y="33"
     inkscape:window-maximized="1"
     inkscape:current-layer="svg5" />
  <defs
     id="defs2" />
  <path
     id="rect1-2"
     style="display:inline;fill:none;fill-opacity:1;fill-rule:evenodd;stroke:#000000;stroke-width:0.254;stroke-linejoin:round;stroke-miterlimit:1.5;stroke-dasharray:none;paint-order:fill markers stroke"
     d="m 190.35642,132.25198 c -15.63947,0.26805 -31.18945,5.09515 -44.17378,13.83007 -12.016,8.02619 -21.86531,19.28438 -28.13931,32.30758 -5.01724,10.33765 -7.85227,21.73666 -8.18979,33.2259 -0.37685,11.85885 1.86109,23.79555 6.52925,34.70472 4.13971,9.70925 10.17766,18.60235 17.66679,26.03952 4.17938,4.20468 8.38484,8.3833 12.57172,12.58046 28.8514,28.84848 57.70213,57.69774 86.55916,86.54047 2.87833,2.70246 7.15659,3.85604 10.99,2.86086 2.3717,-0.58009 4.50795,-1.95323 6.14545,-3.74919 21.45139,-21.42887 42.87872,-42.88179 64.31738,-64.32341 11.78801,-11.79267 23.57538,-23.58607 35.35984,-35.38226 8.10858,-8.49354 14.40241,-18.72345 18.254,-29.82042 5.2061,-14.91722 5.97133,-31.36102 2.10728,-46.68528 -2.94924,-11.86211 -8.5873,-23.05162 -16.39835,-32.45608 -7.34798,-8.87356 -16.58358,-16.18146 -26.92945,-21.25498 -10.93356,-5.38193 -23.07945,-8.29237 -35.26729,-8.40862 -11.18857,-0.12503 -22.39904,2.07079 -32.70745,6.42475 -6.31439,2.663 -12.29836,6.11304 -17.75174,10.2644 -12.99491,-9.89871 -29.01188,-15.79068 -45.33398,-16.58649 -1.8679,-0.10207 -3.73929,-0.1308 -5.60973,-0.112 z M 482.59999,241.29999 A 241.30002,241.30001 0 0 1 241.3,482.59999 241.30002,241.30001 0 0 1 0,241.29999 241.30002,241.30001 0 0 1 241.3,1e-6 241.30002,241.30001 0 0 1 482.59999,241.29999 Z" />
  <path
     id="rect1-2-4"
     style="display:inline;fill:none;fill-opacity:1;fill-rule:evenodd;stroke:#000000;stroke-width:0.140205;stroke-linejoin:round;stroke-miterlimit:1.5;paint-order:fill markers stroke"
     d="m 292.30291,132.10259 c 15.63947,0.26804 31.18945,5.09514 44.17378,13.83007 12.016,8.02618 21.8653,19.28437 28.13931,32.30758 5.01724,10.33764 7.85227,21.7367 8.18979,33.22599 0.37685,11.85885 -1.86109,23.79555 -6.52925,34.70472 -4.13971,9.70925 -10.17766,18.60235 -17.66679,26.03952 -4.17938,4.20468 -8.38484,8.3833 -12.57172,12.58047 -28.8514,28.84847 -57.70213,57.69774 -86.55907,86.54047 -2.87831,2.70245 -7.15655,3.85604 -10.98996,2.86086 -2.3717,-0.5801 -4.50795,-1.95323 -6.14545,-3.7492 -21.45139,-21.42887 -42.87872,-42.88179 -64.31738,-64.32341 -11.78801,-11.79267 -23.57538,-23.58607 -35.35984,-35.38225 -8.10858,-8.49355 -14.40241,-18.72346 -18.25401,-29.82043 -5.2061,-14.91723 -5.97132,-31.36102 -2.10727,-46.68536 2.94923,-11.86212 8.58729,-23.05163 16.39835,-32.4561 7.34798,-8.87356 16.58358,-16.18145 26.92945,-21.25498 10.93356,-5.38193 23.07944,-8.29237 35.26729,-8.40862 11.18857,-0.12503 22.39904,2.07079 32.70745,6.42475 6.31438,2.663 12.29836,6.11304 17.75174,10.2644 12.99485,-9.8987 29.01175,-15.79067 45.33385,-16.58649 1.8679,-0.10207 3.73929,-0.13079 5.60973,-0.11199 z" />
</svg>
