<?xml version="1.0" encoding="UTF-8" standalone="no"?>
<!-- Created with Inkscape (http://www.inkscape.org/) -->

<svg
   width="19in"
   height="19in"
   viewBox="0 0 482.60001 482.6"
   version="1.1"
   id="svg5"
   xmlns="http://www.w3.org/2000/svg"
   xmlns:svg="http://www.w3.org/2000/svg">
  <defs
     id="defs2" />
  <g
     id="layer1-9"
     transform="translate(138.42671,92.774163)"
     style="display:inline">
    <path
       id="rect1-2-4"
       style="display:inline;fill:none;fill-opacity:1;fill-rule:evenodd;stroke:#000000;stroke-width:0.140205;stroke-linejoin:round;stroke-miterlimit:1.5;paint-order:fill markers stroke"
       d="M 51.812973,39.272616 C 36.173507,39.540665 20.623521,44.367761 7.6391955,53.102686 -4.3767995,61.128874 -14.226108,72.38706 -20.500115,85.410267 c -5.017239,10.337647 -7.852272,21.736703 -8.189788,33.225993 -0.376855,11.85885 1.861091,23.79555 6.529246,34.70472 4.139713,9.70925 10.177667,18.60235 17.6667955,26.03952 4.17937659,4.20468 8.3848341,8.3833 12.5717207,12.58047 28.8513938,28.84847 57.7021268,57.69774 86.5590638,86.54047 2.878312,2.70245 7.156557,3.85604 10.989967,2.86086 2.3717,-0.5801 4.50795,-1.95323 6.14545,-3.7492 21.45139,-21.42887 42.87872,-42.88179 64.31738,-64.32341 11.78801,-11.79267 23.57538,-23.58607 35.35984,-35.38225 8.10858,-8.49355 14.40241,-18.72346 18.25401,-29.82043 5.2061,-14.91723 5.97132,-31.36102 2.10727,-46.68536 -2.94923,-11.862121 -8.58729,-23.051633 -16.39835,-32.456095 -7.34798,-8.873564 -16.58358,-16.181459 -26.92945,-21.254985 -10.93356,-5.381927 -23.07944,-8.292367 -35.26729,-8.40862 -11.18857,-0.125026 -22.39904,2.070793 -32.70745,6.424753 -6.31438,2.663 -12.29836,6.113042 -17.75174,10.264397 C 89.76171,46.072397 73.744802,40.180428 57.422703,39.384609 c -1.8679,-0.102066 -3.73929,-0.130792 -5.60973,-0.111993 z"
       transform="translate(0.17618077,0.05581063)" />
    <path
       style="display:inline;fill:none;fill-opacity:1;fill-rule:evenodd;stroke:#000000;stroke-width:0.254;stroke-linejoin:round;stroke-miterlimit:1.5;stroke-dasharray:none;paint-order:fill markers stroke"
       d="m 343.9971,148.47002 a 241.30002,241.30001 0 0 1 -241.29999,241.3 241.30002,241.30001 0 0 1 -241.3,-241.3 241.30002,241.30001 0 0 1 241.3,-241.299993 241.30002,241.30001 0 0 1 241.29999,241.299993 z"
       transform="translate(0.17618077,0.05581063)"
       id="path1" />
    <path
       style="display:inline;fill:none;fill-opacity:1;fill-rule:evenodd;stroke:#000000;stroke-width:0.254;stroke-linejoin:round;stroke-miterlimit:1.5;stroke-dasharray:none;paint-order:fill markers stroke"
       d="m 51.753528,39.422009 c -15.639465,0.26805 -31.18945,5.095145 -44.1737768,13.83007 -12.0160016,8.026188 -21.8653122,19.284373 -28.1393152,32.30758 -5.017236,10.337646 -7.852267,21.736661 -8.189783,33.225901 -0.376854,11.85885 1.86109,23.79555 6.529242,34.70472 4.13971,9.70925 10.177661,18.60235 17.6667923,26.03952 4.17937948,4.20468 8.3848389,8.3833 12.5717272,12.58046 28.8513935,28.84848 57.7021265,57.69774 86.5591585,86.54047 2.878323,2.70246 7.156587,3.85604 10.989997,2.86086 2.3717,-0.58009 4.50795,-1.95323 6.14545,-3.74919 21.45139,-21.42887 42.87872,-42.88179 64.31738,-64.32341 11.78801,-11.79267 23.57538,-23.58607 35.35984,-35.38226 8.10858,-8.49354 14.40241,-18.72345 18.254,-29.82042 5.2061,-14.91722 5.97133,-31.36102 2.10728,-46.68528 -2.94924,-11.862109 -8.5873,-23.051621 -16.39835,-32.456082 -7.34798,-8.873564 -16.58358,-16.181459 -26.92945,-21.254985 -10.93356,-5.381926 -23.07945,-8.292367 -35.26729,-8.408619 -11.18857,-0.125026 -22.39904,2.070793 -32.70745,6.424753 -6.31439,2.662999 -12.29836,6.113041 -17.75174,10.264396 C 89.702334,46.22179 73.685356,40.329821 57.363258,39.534002 c -1.8679,-0.102065 -3.73929,-0.130791 -5.60973,-0.111993 z"
       transform="translate(0.17618077,0.05581063)"
       id="rect1-2" />
  </g>
</svg>
