<?xml version="1.0" encoding="UTF-8" standalone="no"?>
<!-- Created with Inkscape (http://www.inkscape.org/) -->

<svg
   width="11.322663in"
   height="10.499983in"
   viewBox="0 0 287.59565 266.69956"
   version="1.1"
   id="svg5"
   xmlns="http://www.w3.org/2000/svg"
   xmlns:svg="http://www.w3.org/2000/svg">
  <defs
     id="defs2" />
  <g
     id="layer1"
     transform="translate(40.923881,-15.167802)">
    <path
       id="rect1"
       style="fill:none;fill-opacity:1;fill-rule:evenodd;stroke:#000000;stroke-width:0.143066;stroke-linejoin:round;stroke-miterlimit:1.5;paint-order:fill markers stroke"
       d="m 50.350577,36.440903 c -1.10477,0.0425 -2.20962,0.08353 -3.311943,0.171223 -0.925364,0.06201 -1.848456,0.157469 -2.770688,0.254368 -1.029073,0.121163 -2.056987,0.250751 -3.080131,0.415395 -0.902837,0.136031 -1.801013,0.303176 -2.698205,0.471824 -1.015748,0.20415 -2.029454,0.417605 -3.035855,0.664221 -0.888696,0.208436 -1.77006,0.448156 -2.650392,0.689027 -0.996024,0.285875 -1.989363,0.580504 -2.972544,0.908212 -0.868815,0.280056 -1.728057,0.589955 -2.585725,0.902121 -0.969388,0.366003 -1.935445,0.740365 -2.888784,1.146648 -0.843259,0.349568 -1.674463,0.728303 -2.504019,1.108954 -0.936594,0.443325 -1.869173,0.894738 -2.786367,1.377185 -0.81861,0.420185 -1.622703,0.868733 -2.424848,1.3193 -0.885042,0.510323 -1.765006,1.029086 -2.627741,1.57648 -0.782201,0.48473 -1.547059,0.997397 -2.310659,1.510678 -0.846458,0.584983 -1.687706,1.177216 -2.5089065,1.797357 -0.7402566,0.546515 -1.4615901,1.11873 -2.1801349,1.693272 -0.8017616,0.656339 -1.5973425,1.319959 -2.3711244,2.00923 -0.6879167,0.600208 -1.3546137,1.224741 -2.0194693,1.850216 -0.7459821,0.719071 -1.4852597,1.444857 -2.20043638,2.194739 -0.63674095,0.654355 -1.25064836,1.330955 -1.86263222,2.008349 -0.6850142,0.777169 -1.3622655,1.560918 -2.0145031,2.365926 -0.5819775,0.703381 -1.1385391,1.427787 -1.6931058,2.152816 -0.6198632,0.830353 -1.2324212,1.665952 -1.8168805,2.521739 -0.5223642,0.748696 -1.0180822,1.515985 -1.5125726,2.283235 -0.5503651,0.87793 -1.0930916,1.760453 -1.6059313,2.660962 -0.459583,0.788837 -0.892265,1.5934 -1.322474,2.398501 -0.473851,0.913114 -0.939726,1.830181 -1.374738,2.762557 -0.401087,0.836202 -0.772872,1.686483 -1.14145,2.537375 -0.3986,0.948616 -0.787323,1.901166 -1.145807,2.865766 -0.328917,0.859424 -0.628126,1.730266 -0.924097,2.60146 -0.320334,0.977709 -0.630476,1.958551 -0.909161,2.949048 -0.255868,0.876271 -0.481029,1.761511 -0.704591,2.646444 -0.241239,1.007645 -0.473318,2.017308 -0.67211,3.034298 -0.184034,0.894299 -0.33664,1.795079 -0.487971,2.69536 -0.157573,1.016704 -0.305761,2.034673 -0.420407,3.057221 -0.113012,0.92055 -0.193488,1.84511 -0.271534,2.76914 -0.07492,1.02598 -0.139002,2.05254 -0.170567,3.08087 -0.03705,0.91226 -0.04235,1.82583 -0.04543,2.73871 0.0092,1.0361 0.02802,2.07193 0.0804,3.10686 0.03697,0.91227 0.105858,1.82329 0.177403,2.73338 0.09304,1.03182 0.195559,2.06261 0.331788,3.08973 0.110553,0.90621 0.253688,1.80843 0.398722,2.70963 0.176604,1.02113 0.362066,2.04056 0.581533,3.05347 0.184319,0.89409 0.399809,1.7818 0.617275,2.66831 0.258885,1.00309 0.526582,2.00372 0.827154,2.99524 0.255931,0.87638 0.543023,1.74366 0.831657,2.60967 0.33706,0.97202 0.682551,1.94095 1.060294,2.89803 0.328467,0.85976 0.687795,1.70767 1.048612,2.55418 0.417547,0.94814 0.84414,1.89206 1.301134,2.82194 0.394311,0.82347 0.818126,1.6328 1.242816,2.44089 0.493316,0.91117 0.995281,1.81745 1.5264372,2.70724 0.4600019,0.78851 0.9474332,1.56104 1.4365684,2.3317 0.5658776,0.86807 1.1390365,1.73122 1.7408763,2.57492 0.5224039,0.74859 1.0710413,1.47886 1.6210439,2.20726 0.6298115,0.81367 1.2670287,1.62139 1.9305322,2.40797 0.5906453,0.71512 1.206455,1.40947 1.8236591,2.10159 0.69345443,0.75999 1.39442563,1.51286 2.1195268,2.24285 1.6216207,1.64478 3.2646038,3.26847 4.8946964,4.90489 32.2157567,32.21578 64.4315147,64.43152 96.6472697,96.64727 0.12599,0.0269 0.25484,0.13763 0.37893,0.10917 0.16116,-0.0576 0.30274,-0.14346 0.40966,-0.27925 33.66415,-33.66415 67.3283,-67.32833 100.99246,-100.99249 0.71818,-0.74773 1.45452,-1.48198 2.1472,-2.25533 0.68162,-0.73223 1.33501,-1.4905 1.98408,-2.25147 0.66392,-0.79542 1.31996,-1.59711 1.95009,-2.41964 0.55745,-0.71393 1.0905,-1.44698 1.62105,-2.18099 0.59282,-0.84077 1.17816,-1.68664 1.73513,-2.55172 0.5065,-0.76819 0.98563,-1.55443 1.46251,-2.34119 0.52253,-0.8862 1.0381,-1.77634 1.52279,-2.68396 0.44225,-0.80696 0.85598,-1.62957 1.26783,-2.45235 0.45225,-0.93233 0.89593,-1.86862 1.30892,-2.81908 0.37229,-0.83352 0.71461,-1.68039 1.05518,-2.52722 0.37508,-0.96578 0.74176,-1.93461 1.07606,-2.91539 0.30335,-0.86106 0.57635,-1.73284 0.84712,-2.60453 0.29559,-0.99306 0.58179,-1.98872 0.83534,-2.99344 0.23236,-0.88284 0.43355,-1.7739 0.63291,-2.66466 0.21392,-1.01372 0.41833,-2.02923 0.58976,-3.0511 0.1601,-0.89871 0.28853,-1.80308 0.41436,-2.70708 0.12991,-1.02067 0.25136,-2.04226 0.33811,-3.06763 0.0878,-0.91593 0.14335,-1.83497 0.19593,-2.75347 0.0469,-1.03512 0.0847,-2.07048 0.0884,-3.10677 0.0124,-0.91289 -0.008,-1.82621 -0.0293,-2.7388 -0.0372,-1.03537 -0.0833,-2.07025 -0.16399,-3.10326 -0.0623,-0.91086 -0.15589,-1.81962 -0.25143,-2.72748 -0.12118,-1.029069 -0.25075,-2.056986 -0.41508,-3.080178 -0.13565,-0.902758 -0.30337,-1.800701 -0.47212,-2.697734 -0.20413,-1.015899 -0.41757,-2.029748 -0.66424,-3.036281 -0.20844,-0.888698 -0.44815,-1.770063 -0.68903,-2.650392 -0.28588,-0.996021 -0.58052,-1.98936 -0.90821,-2.972544 -0.28006,-0.868815 -0.58994,-1.728054 -0.90212,-2.585725 -0.366,-0.969394 -0.74036,-1.935448 -1.14673,-2.888739 -0.3497,-0.843357 -0.72845,-1.674675 -1.10887,-2.50448 -0.44323,-0.936368 -0.89498,-1.868498 -1.37705,-2.785586 -0.42013,-0.818777 -0.86881,-1.622949 -1.31945,-2.425213 -0.5103,-0.885045 -1.02907,-1.765004 -1.57644,-2.627741 -0.48467,-0.782119 -0.99745,-1.546741 -1.51069,-2.310233 -0.58912,-0.852364 -1.18544,-1.699541 -1.80981,-2.526599 -0.54287,-0.733973 -1.1108,-1.449528 -1.68081,-2.162461 -0.65628,-0.801955 -1.31985,-1.597702 -2.00925,-2.37155 -0.60005,-0.687883 -1.22481,-1.354252 -1.85023,-2.019023 -0.71909,-0.745963 -1.44484,-1.485259 -2.19456,-2.200595 -0.65424,-0.636746 -1.3308,-1.250571 -2.00848,-1.862079 -0.77732,-0.685115 -1.56064,-1.363154 -2.36612,-2.015143 -0.70937,-0.586283 -1.43906,-1.148038 -2.17027,-1.706677 -0.82423,-0.615616 -1.65473,-1.222494 -2.50412,-1.803063 -0.74869,-0.522367 -1.51598,-1.018085 -2.28325,-1.512573 -0.87773,-0.550537 -1.76061,-1.092536 -2.66083,-1.605738 -0.78854,-0.460256 -1.59346,-0.892431 -2.39864,-1.32267 -0.91307,-0.473851 -1.83017,-0.939726 -2.76254,-1.374738 -0.83629,-0.40105 -1.68642,-0.773253 -2.53738,-1.141878 -0.94861,-0.398616 -1.90116,-0.787321 -2.86583,-1.145636 -0.85942,-0.328789 -1.73024,-0.627909 -2.60139,-0.923837 -0.97774,-0.320286 -1.95855,-0.630479 -2.94894,-0.909532 -0.87622,-0.256164 -1.76159,-0.481023 -2.64654,-0.704649 -1.00764,-0.241239 -2.01732,-0.473321 -3.03432,-0.672108 -0.89424,-0.184097 -1.79507,-0.336248 -2.69534,-0.487545 -1.02375,-0.158837 -2.04888,-0.307469 -3.07848,-0.42337 -0.91353,-0.111699 -1.83097,-0.191588 -2.74788,-0.268999 -1.02598,-0.07492 -2.05256,-0.139002 -3.08089,-0.170567 -0.91223,-0.03715 -1.82581,-0.04188 -2.7387,-0.04506 -1.03611,0.0089 -2.07193,0.02756 -3.10687,0.08002 -0.91226,0.03697 -1.82327,0.105857 -2.73336,0.177403 -1.02468,0.09265 -2.04846,0.193641 -3.06843,0.329433 -0.91331,0.111197 -1.82268,0.254966 -2.73095,0.401077 -1.02113,0.176604 -2.04054,0.362069 -3.05345,0.581533 -0.8941,0.184319 -1.78181,0.399809 -2.66832,0.617273 -1.00309,0.258849 -2.00374,0.526579 -2.99516,0.827439 -0.87636,0.256156 -1.74371,0.54311 -2.60975,0.8318 -0.97205,0.33706 -1.94098,0.682551 -2.89806,1.060294 -0.85963,0.328535 -1.70772,0.687361 -2.55415,1.048231 -0.94806,0.417796 -1.89198,0.844566 -2.82194,1.301517 -0.82989,0.397791 -1.64603,0.824318 -2.4601,1.253276 -0.90493,0.489424 -1.80454,0.988227 -2.68803,1.515549 -0.78865,0.45997 -1.56096,0.947849 -2.33172,1.436958 -0.86815,0.565644 -1.7313,1.138634 -2.5749,1.740487 -0.75427,0.527113 -1.49043,1.080222 -2.22451,1.634905 -0.80812,0.624962 -1.60973,1.257988 -2.39075,1.916671 -0.71509,0.590645 -1.40944,1.206455 -2.10156,1.823659 -0.75999,0.693452 -1.51286,1.394426 -2.24285,2.119548 -0.0947,0.171334 -0.18938,-0.06281 -0.28408,-0.120036 -0.80158,-0.7943 -1.63179,-1.55892 -2.46967,-2.314493 -0.783224,-0.689422 -1.570783,-1.373733 -2.382207,-2.029976 -0.714428,-0.59128 -1.449916,-1.157174 -2.186702,-1.720191 -0.824362,-0.615773 -1.654995,-1.222812 -2.504545,-1.803479 -0.748639,-0.522254 -1.515666,-1.01817 -2.282825,-1.512549 -0.877941,-0.550461 -1.760961,-1.09246 -2.661153,-1.605894 -0.788397,-0.460277 -1.593239,-0.892366 -2.39831,-1.322517 -0.919599,-0.477176 -1.843339,-0.94601 -2.78221,-1.384327 -0.823402,-0.394507 -1.660647,-0.760153 -2.497955,-1.123894 -0.955464,-0.400966 -1.914541,-0.79285 -2.885911,-1.153896 -0.852453,-0.326784 -1.716744,-0.622614 -2.580685,-0.917292 -0.984713,-0.322355 -1.972305,-0.635341 -2.969755,-0.916233 -0.876223,-0.256164 -1.761596,-0.481023 -2.646553,-0.704649 -1.007642,-0.241239 -2.017305,-0.473321 -3.034297,-0.672108 -0.894263,-0.184097 -1.795098,-0.336248 -2.695361,-0.487545 -1.023742,-0.158837 -2.048867,-0.307469 -3.078461,-0.42337 -0.913519,-0.111699 -1.830967,-0.191588 -2.747897,-0.268999 -1.025977,-0.07492 -2.052539,-0.139002 -3.080866,-0.170567 -0.828125,-0.03901 -1.65749,-0.03196 -2.486224,-0.04829 0.06157,0.02647 0.39487,0.165431 0.206402,0.0884 -0.149847,-0.08448 -0.312259,-0.102174 -0.481187,-0.08524 -0.558197,0.0076 -1.116396,0.01527 -1.674593,0.02289 z m -0.29003,-21.247542 0.287109,-0.002 c -0.271559,6e-6 -0.543093,0.0052 -0.814453,0.01563 -1.038972,0.03997 -2.412121,0.08758 -4.058594,0.214844 -1.378273,0.09615 -2.54103,0.21738 -3.427734,0.310547 -0.08795,0.0092 -0.175843,0.01899 -0.263672,0.0293 -1.100629,0.129588 -2.406387,0.292399 -3.880859,0.527343 -1.335294,0.204222 -2.461819,0.415401 -3.337891,0.580079 -0.08734,0.01638 -0.174586,0.03331 -0.261719,0.05078 -1.11702,0.224504 -2.405474,0.49499 -3.835937,0.84375 -1.30688,0.310043 -2.412029,0.612497 -3.271485,0.847656 -0.08543,0.0229 -0.17072,0.04634 -0.255859,0.07031 -1.081715,0.310469 -2.331275,0.681783 -3.710937,1.138671 -1.290043,0.418066 -2.379438,0.811337 -3.251954,1.128907 -0.0796,0.02882 -0.15903,0.05812 -0.238281,0.08789 -1.055009,0.398331 -2.275489,0.869425 -3.61914,1.439453 -1.248069,0.520261 -2.299459,1.001316 -3.13086,1.382813 -0.07638,0.03535 -0.152557,0.07116 -0.228515,0.107422 -1.020504,0.483043 -2.194045,1.052058 -3.478516,1.724609 -1.194873,0.61577 -2.2136413,1.182361 -3.046875,1.650391 -0.069881,0.03867 -0.1395437,0.07773 -0.2089844,0.117187 -0.9720063,0.560468 -2.0812745,1.216143 -3.2851562,1.976563 -1.1788841,0.733486 -2.14606907,1.382973 -2.89257815,1.884765 -0.0758517,0.05094 -0.15137414,0.102378 -0.2265625,0.154297 -0.90192705,0.623318 -1.95754825,1.365566 -3.11132815,2.232422 -1.1055008,0.818619 -2.0271944,1.550574 -2.7675781,2.142578 -0.063446,0.05107 -0.1265982,0.102502 -0.1894531,0.154297 -0.8828333,0.722706 -1.8846279,1.558331 -2.9628907,2.515625 -1.0141657,0.888437 -1.8566757,1.677651 -2.5273437,2.308594 -0.06287,0.05951 -0.125367,0.11941 -0.1875,0.179687 -0.825103,0.795338 -1.766297,1.717041 -2.785156,2.783204 -0.929629,0.960581 -1.697349,1.809051 -2.296875,2.472656 -0.05834,0.06475 -0.116286,0.129852 -0.173828,0.195312 -0.746131,0.846508 -1.602697,1.832526 -2.521485,2.962891 -0.872032,1.058789 -1.577571,1.981568 -2.125,2.697266 -0.05051,0.06546 -0.100644,0.131218 -0.15039,0.197265 -0.678031,0.908273 -1.45199,1.96546 -2.277344,3.169922 -0.778811,1.121344 -1.401862,2.089696 -1.882813,2.835938 -0.04865,0.07457 -0.09683,0.149437 -0.144531,0.224609 -0.591866,0.944132 -1.284852,2.065613 -2.029297,3.369141 -0.665606,1.148872 -1.207142,2.157019 -1.636718,2.960937 -0.04017,0.07528 -0.07988,0.150804 -0.119141,0.226563 -0.525816,1.01325 -1.110269,2.169913 -1.712891,3.455078 -0.584364,1.223813 -1.057587,2.301422 -1.441406,3.1875 -0.03099,0.07145 -0.06159,0.143061 -0.0918,0.214843 -0.435867,1.037306 -0.925444,2.234407 -1.425781,3.572266 -0.490002,1.285507 -0.870031,2.396784 -1.173828,3.291016 -0.02448,0.07279 -0.04857,0.145703 -0.07227,0.21875 -0.363334,1.108954 -0.757874,2.357964 -1.148437,3.740234 -0.37002,1.278738 -0.652967,2.388694 -0.875,3.267578 -0.02137,0.08581 -0.0422,0.171746 -0.0625,0.257813 -0.265166,1.107585 -0.559336,2.385595 -0.841797,3.820312 -0.267119,1.31303 -0.459734,2.441801 -0.609375,3.332031 -0.0149,0.08975 -0.02922,0.179597 -0.04297,0.269532 -0.175008,1.129202 -0.362284,2.420496 -0.525391,3.857422 -0.162262,1.348988 -0.263859,2.5128 -0.341796,3.43555 -0.0063,0.0807 -0.01218,0.16143 -0.01758,0.24219 -0.08401,1.15051 -0.165016,2.4454 -0.210937,3.86523 -0.0517,1.33101 -0.05932,2.4859 -0.0625,3.42773 -5.37e-4,0.0872 -5.37e-4,0.17448 0,0.26172 0.01006,1.13303 0.0344,2.43794 0.105469,3.88867 0.05765,1.35542 0.144735,2.51108 0.216797,3.42774 0.0067,0.0808 0.01386,0.1615 0.02148,0.24219 0.101679,1.12763 0.229686,2.4231 0.416016,3.84961 0.167729,1.35532 0.350822,2.50511 0.498046,3.41992 0.0132,0.0815 0.02687,0.16284 0.04102,0.24414 0.194895,1.12689 0.430421,2.41971 0.738281,3.84961 0.273255,1.30991 0.544417,2.42665 0.761719,3.3125 0.02034,0.0828 0.04117,0.16549 0.0625,0.24804 0.286697,1.11086 0.626118,2.37722 1.046875,3.77149 0.374537,1.2712 0.734315,2.36299 1.027344,3.24219 0.02685,0.0815 0.05419,0.16293 0.08203,0.24414 0.371126,1.07026 0.810703,2.30285 1.347656,3.66797 0.486957,1.26328 0.939755,2.32825 1.291016,3.15234 0.03339,0.0777 0.06725,0.15515 0.101562,0.23242 0.454855,1.03286 0.988075,2.21903 1.621094,3.51367 0.601417,1.25069 1.143395,2.27852 1.560547,3.07227 0.04054,0.0771 0.08156,0.1539 0.123047,0.23047 0.541526,1.00021 1.176778,2.15047 1.927734,3.41211 0.680468,1.15992 1.295917,2.13181 1.78125,2.89648 0.04578,0.0732 0.092,0.14611 0.138672,0.21875 0.60725,0.93154 1.324575,2.01035 2.160156,3.1875 0.787598,1.12542 1.487557,2.05482 2.044922,2.79297 0.05103,0.068 0.102459,0.13572 0.154297,0.20312 0.685309,0.88537 1.489612,1.90768 2.427735,3.02344 0.874714,1.05441 1.654246,1.92894 2.271484,2.6211 0.05369,0.0608 0.107726,0.1214 0.162109,0.18164 0.778816,0.85354 1.681081,1.83019 2.740235,2.89648 1.730352,1.75408 3.383279,3.3871 4.9160152,4.92578 l 0.029297,0.0273 c 32.2160768,32.21618 64.4329938,64.43113 96.6484478,96.64657 2.899989,2.90004 6.577148,4.89904 10.58789,5.75586 -0.910729,-0.19445 -1.077375,-0.31231 -1.685547,-0.48633 2.180173,0.83215 5.609201,1.82151 11.251951,0.52735 0.8139,-0.18697 1.61608,-0.42176 2.40235,-0.70313 2.73969,-0.97919 6.88064,-3.24047 9.95312,-7.14258 l -1.66992,1.87891 100.99219,-100.99219 c 0.10128,-0.10055 0.20155,-0.20212 0.30078,-0.30469 0.48656,-0.50658 1.38604,-1.40779 2.50781,-2.64843 0.96894,-1.04828 1.79473,-2.00147 2.46484,-2.78711 0.0491,-0.0577 0.098,-0.11563 0.14649,-0.17383 0.74245,-0.88951 1.57069,-1.90196 2.44726,-3.04297 0.8235,-1.05879 1.49657,-1.98683 2.03125,-2.72656 0.0486,-0.0674 0.0968,-0.13514 0.14454,-0.20313 0.6309,-0.89478 1.36997,-1.95911 2.1621,-3.18359 0.75362,-1.14751 1.36109,-2.14636 1.8418,-2.93945 0.0447,-0.0739 0.089,-0.14817 0.13281,-0.22266 0.57052,-0.96759 1.22329,-2.09588 1.91211,-3.38086 0.65048,-1.19376 1.1698,-2.22917 1.57422,-3.03711 0.0395,-0.0785 0.0786,-0.15731 0.11719,-0.23633 0.48183,-0.99331 1.04175,-2.1687 1.62695,-3.50781 0.56191,-1.26357 0.99555,-2.34206 1.33399,-3.18359 0.0317,-0.0786 0.0629,-0.15737 0.0937,-0.23633 0.41074,-1.0576 0.87653,-2.28446 1.35156,-3.67188 0.44809,-1.28178 0.7892,-2.38165 1.05469,-3.23633 0.0252,-0.0806 0.0499,-0.16131 0.0742,-0.24218 0.32576,-1.09442 0.69139,-2.35863 1.05273,-3.78321 0.33751,-1.29563 0.58794,-2.41567 0.78516,-3.29687 0.0194,-0.0839 0.0382,-0.16785 0.0566,-0.25195 0.23651,-1.12077 0.49634,-2.40961 0.74023,-3.85352 0.23265,-1.32604 0.39274,-2.46834 0.51758,-3.36523 0.0115,-0.082 0.0226,-0.164 0.0332,-0.2461 0.14048,-1.10379 0.29274,-2.39433 0.41797,-3.84179 0.12499,-1.33328 0.19753,-2.49647 0.25195,-3.44727 0.005,-0.0846 0.01,-0.16925 0.0137,-0.25391 0.0514,-1.13539 0.0979,-2.43813 0.10547,-3.88476 0.0159,-1.36468 -0.0103,-2.51878 -0.0312,-3.41797 -0.002,-0.0892 -0.005,-0.1784 -0.008,-0.26758 -0.0407,-1.13365 -0.0984,-2.44446 -0.21093,-3.91015 -0.0947,-1.34071 -0.21414,-2.483254 -0.3086,-3.380864 -0.009,-0.08665 -0.0189,-0.173238 -0.0291,-0.259766 -0.1301,-1.104856 -0.29193,-2.407491 -0.52539,-3.875 -0.20496,-1.343115 -0.41566,-2.471732 -0.58007,-3.345703 -0.0164,-0.08604 -0.0333,-0.171981 -0.0508,-0.257813 -0.22465,-1.118069 -0.49496,-2.407462 -0.84375,-3.83789 -0.30999,-1.306666 -0.61238,-2.413604 -0.84765,-3.273438 -0.0229,-0.08478 -0.0463,-0.169417 -0.0703,-0.253906 -0.31053,-1.081886 -0.68196,-2.331715 -1.13868,-3.710938 -0.41796,-1.289714 -0.81115,-2.378974 -1.1289,-3.251953 -0.0288,-0.0796 -0.0581,-0.15903 -0.0879,-0.238281 -0.39302,-1.040947 -0.86047,-2.250369 -1.42188,-3.576172 -0.52986,-1.273928 -1.01519,-2.33005 -1.39844,-3.166015 -0.036,-0.079 -0.0724,-0.157777 -0.10936,-0.236329 -0.48503,-1.024669 -1.05273,-2.19654 -1.72266,-3.476562 -0.61724,-1.198102 -1.18511,-2.217025 -1.65234,-3.048828 -0.0387,-0.06988 -0.0777,-0.139544 -0.11719,-0.208985 -0.55439,-0.96152 -1.20965,-2.072773 -1.97656,-3.287109 -0.74108,-1.190994 -1.39166,-2.157083 -1.88477,-2.890625 -0.0516,-0.07586 -0.10368,-0.151379 -0.15625,-0.226562 -0.62757,-0.908004 -1.37443,-1.975446 -2.25781,-3.150391 -0.8127,-1.095194 -1.5365,-2.00272 -2.11523,-2.726563 -0.0504,-0.06344 -0.10121,-0.126593 -0.15235,-0.189453 -0.72518,-0.886153 -1.5622,-1.886695 -2.51953,-2.964843 -0.88873,-1.014551 -1.679,-1.858144 -2.30859,-2.527344 -0.0589,-0.06286 -0.11811,-0.125361 -0.17774,-0.1875 -0.78302,-0.812286 -1.69236,-1.739792 -2.73046,-2.734375 -0.98297,-0.953982 -1.84568,-1.735265 -2.53516,-2.357422 -0.0615,-0.05505 -0.12338,-0.109736 -0.18555,-0.164063 -0.84298,-0.742984 -1.83257,-1.604419 -2.97656,-2.533203 -1.04787,-0.862057 -1.97339,-1.571287 -2.71094,-2.134765 -0.061,-0.04655 -0.12214,-0.09278 -0.18359,-0.138672 -0.92438,-0.690418 -1.97612,-1.459963 -3.16016,-2.271485 -1.11903,-0.777052 -2.08675,-1.398588 -2.83203,-1.878906 -0.0733,-0.04733 -0.14685,-0.0942 -0.2207,-0.140625 -0.95696,-0.600228 -2.0793,-1.29388 -3.37305,-2.033203 -1.1586,-0.671864 -2.17026,-1.214231 -2.96094,-1.636719 -0.0753,-0.04017 -0.1508,-0.07988 -0.22656,-0.11914 -0.9932,-0.515438 -2.15018,-1.102835 -3.45508,-1.714844 -1.2445,-0.594019 -2.32529,-1.065955 -3.1875,-1.439453 -0.0714,-0.03099 -0.14306,-0.06159 -0.21484,-0.0918 -1.05298,-0.442474 -2.26645,-0.938593 -3.63672,-1.449219 -1.2509,-0.474963 -2.34689,-0.851567 -3.22656,-1.15039 -0.0734,-0.02514 -0.14701,-0.04988 -0.22071,-0.07422 -1.08465,-0.355311 -2.32649,-0.748805 -3.71679,-1.142578 -1.3207,-0.382855 -2.43754,-0.664222 -3.28711,-0.878907 -0.0865,-0.02138 -0.17305,-0.04221 -0.25977,-0.0625 -1.10981,-0.265701 -2.38961,-0.560737 -3.82812,-0.84375 -1.30962,-0.266285 -2.43865,-0.458267 -3.32617,-0.607421 -0.0878,-0.01488 -0.1757,-0.0292 -0.26368,-0.04297 -1.13322,-0.175822 -2.42874,-0.365077 -3.86914,-0.529297 -1.33947,-0.161128 -2.49739,-0.261134 -3.42968,-0.339844 -0.08,-0.0063 -0.16013,-0.01217 -0.24024,-0.01758 -1.1505,-0.08401 -2.4454,-0.165016 -3.86523,-0.210937 -1.36194,-0.05287 -2.51841,-0.05739 -3.42578,-0.06055 -0.0853,-5.13e-4 -0.17057,-5.13e-4 -0.25586,0 -1.13947,0.0098 -2.44817,0.03444 -3.89649,0.105469 -1.35538,0.05765 -2.51102,0.144729 -3.42773,0.216796 -0.0827,0.0067 -0.16541,0.01384 -0.24805,0.02149 -1.10892,0.100266 -2.39609,0.227366 -3.82226,0.414062 -1.35003,0.166835 -2.50652,0.34992 -3.43946,0.5 -0.0821,0.01319 -0.16414,0.02687 -0.24609,0.04102 -1.12695,0.194906 -2.41981,0.430446 -3.84961,0.738281 -1.31,0.27327 -2.42675,0.544441 -3.3125,0.761719 -0.0828,0.02034 -0.16549,0.04117 -0.24805,0.0625 -1.07886,0.278403 -2.34454,0.615362 -3.76172,1.042969 -1.29656,0.382101 -2.393,0.744272 -3.2539,1.03125 -0.0802,0.02686 -0.16032,0.05421 -0.24024,0.08203 -1.06305,0.368616 -2.29091,0.80613 -3.64453,1.33789 -1.27449,0.490624 -2.34479,0.946784 -3.17969,1.302735 -0.079,0.03338 -0.15775,0.06723 -0.23632,0.101562 -1.0335,0.455445 -2.22213,0.990249 -3.52735,1.628907 -1.22697,0.590849 -2.26165,1.132886 -3.09179,1.570312 -0.0679,0.03609 -0.13562,0.07255 -0.20313,0.109375 -1.0072,0.544735 -2.14004,1.172599 -3.36133,1.898438 -1.18379,0.693051 -2.16407,1.313173 -2.93554,1.802734 -0.0712,0.0458 -0.1422,0.09202 -0.21289,0.138672 -0.007,0.0045 -0.0166,0.01116 -0.0234,0.01563 -0.14752,-0.09515 -0.37511,-0.253067 -0.50977,-0.339844 -0.0739,-0.04733 -0.14814,-0.09421 -0.22265,-0.140625 -0.96138,-0.602771 -2.07802,-1.291089 -3.347661,-2.017578 -1.160226,-0.673763 -2.177888,-1.21844 -2.986328,-1.650391 -0.07528,-0.04017 -0.150803,-0.07988 -0.226562,-0.11914 -0.999121,-0.51844 -2.156741,-1.108535 -3.460938,-1.720703 -1.244642,-0.594075 -2.30887,-1.054687 -3.140625,-1.416016 -0.08116,-0.03566 -0.162541,-0.07082 -0.24414,-0.105469 -1.05237,-0.441633 -2.260261,-0.934802 -3.617188,-1.441406 -1.284735,-0.489073 -2.37935,-0.862176 -3.212891,-1.146484 -0.08251,-0.02785 -0.165197,-0.05519 -0.248046,-0.08203 -1.057211,-0.34608 -2.302058,-0.745397 -3.716837,-1.146489 -1.329086,-0.385723 -2.449098,-0.667101 -3.302735,-0.882813 -0.08646,-0.02138 -0.173047,-0.04221 -0.259765,-0.0625 -1.11575,-0.26712 -2.39627,-0.56168 -3.830078,-0.84375 -1.309531,-0.266261 -2.438642,-0.458264 -3.326172,-0.607421 -0.0878,-0.01488 -0.175692,-0.0292 -0.263672,-0.04297 -1.130412,-0.175386 -2.426272,-0.364643 -3.871094,-0.529296 -1.336572,-0.160643 -2.495001,-0.261263 -3.425781,-0.339844 -0.08004,-0.0063 -0.160124,-0.01217 -0.240235,-0.01758 -3.136052,-0.183707 -6.233454,-0.289276 -9.353495,-0.24609 z" />
  </g>
</svg>
