<?xml version="1.0" encoding="UTF-8" standalone="no"?>
<!-- Created with Inkscape (http://www.inkscape.org/) -->

<svg
   width="10.353323in"
   height="9.5452204in"
   viewBox="0 0 262.97441 242.4486"
   version="1.1"
   id="svg5"
   xmlns="http://www.w3.org/2000/svg"
   xmlns:svg="http://www.w3.org/2000/svg">
  <defs
     id="defs2" />
  <g
     id="layer1"
     transform="translate(28.730707,-39.267225)"
     style="display:inline" />
  <g
     id="layer1-9"
     transform="translate(28.554527,-39.323035)"
     style="display:inline">
    <path
       style="fill:none;fill-opacity:1;fill-rule:evenodd;stroke:#000000;stroke-width:0.143066;stroke-linejoin:round;stroke-miterlimit:1.5;paint-order:fill markers stroke"
       d="m 50.350577,49.670078 c -1.10477,0.0425 -2.20962,0.08353 -3.311943,0.171223 -0.925364,0.06201 -1.848456,0.157469 -2.770688,0.254368 -1.029073,0.121163 -2.056987,0.250751 -3.080131,0.415395 -0.902837,0.136031 -1.801013,0.303176 -2.698205,0.471824 -1.015748,0.20415 -2.029454,0.417605 -3.035855,0.664221 -0.888696,0.208436 -1.77006,0.448156 -2.650392,0.689027 -0.996024,0.285875 -1.989363,0.580504 -2.972544,0.908212 -0.868815,0.280056 -1.728057,0.589955 -2.585725,0.902121 -0.969388,0.366003 -1.935445,0.740365 -2.888784,1.146648 -0.843259,0.349568 -1.674463,0.728303 -2.504019,1.108954 -0.936594,0.443325 -1.869173,0.894738 -2.786367,1.377185 -0.81861,0.420185 -1.622703,0.868733 -2.424848,1.3193 -0.885042,0.510323 -1.765006,1.029086 -2.627741,1.57648 -0.782201,0.48473 -1.547059,0.997397 -2.310659,1.510678 -0.846458,0.584983 -1.687706,1.177216 -2.5089065,1.797357 -0.7402566,0.546515 -1.4615901,1.11873 -2.1801349,1.693272 -0.8017616,0.656339 -1.5973425,1.319959 -2.3711244,2.00923 -0.6879167,0.600208 -1.3546137,1.224741 -2.0194693,1.850216 -0.7459821,0.719071 -1.4852597,1.444857 -2.20043638,2.194739 -0.63674095,0.654355 -1.25064836,1.330955 -1.86263222,2.008349 -0.6850142,0.777169 -1.3622655,1.560918 -2.0145031,2.365926 -0.5819775,0.703381 -1.1385391,1.427787 -1.6931058,2.152816 -0.6198632,0.830353 -1.2324212,1.665952 -1.8168805,2.521739 -0.5223642,0.748696 -1.0180822,1.515985 -1.5125726,2.283235 -0.5503651,0.87793 -1.0930916,1.760453 -1.6059313,2.660962 -0.459583,0.788837 -0.892265,1.5934 -1.322474,2.398501 -0.473851,0.913114 -0.939726,1.830181 -1.374738,2.762557 -0.401087,0.836202 -0.772872,1.686483 -1.14145,2.537375 -0.3986,0.948616 -0.787323,1.901166 -1.145807,2.865766 -0.328917,0.859424 -0.628126,1.730266 -0.924097,2.601455 -0.320334,0.977714 -0.630476,1.958561 -0.909161,2.949061 -0.255868,0.87628 -0.481029,1.76152 -0.704591,2.64646 -0.241239,1.00765 -0.473318,2.01732 -0.67211,3.03432 -0.184034,0.8943 -0.33664,1.79508 -0.487971,2.69537 -0.157573,1.01671 -0.305761,2.03469 -0.420407,3.05724 -0.113012,0.92055 -0.193488,1.84511 -0.271534,2.76914 -0.07492,1.02598 -0.139002,2.05254 -0.170567,3.08087 -0.03705,0.91226 -0.04235,1.82583 -0.04543,2.73871 0.0092,1.0361 0.02802,2.07193 0.0804,3.10686 0.03697,0.91227 0.105858,1.82329 0.177403,2.73338 0.09304,1.03182 0.195559,2.06261 0.331788,3.08973 0.110553,0.90621 0.253688,1.80843 0.398722,2.70963 0.176604,1.02113 0.362066,2.04056 0.581533,3.05347 0.184319,0.89409 0.399809,1.7818 0.617275,2.66831 0.258885,1.00309 0.526582,2.00372 0.827154,2.99524 0.255931,0.87638 0.543023,1.74366 0.831657,2.60967 0.33706,0.97202 0.682551,1.94095 1.060294,2.89803 0.328467,0.85976 0.687795,1.70767 1.048612,2.55418 0.417547,0.94814 0.84414,1.89206 1.301134,2.82194 0.394311,0.82347 0.818126,1.6328 1.242816,2.44089 0.493316,0.91117 0.995281,1.81745 1.5264372,2.70724 0.4600019,0.78851 0.9474332,1.56104 1.4365684,2.3317 0.5658776,0.86807 1.1390365,1.73122 1.7408763,2.57492 0.5224039,0.74859 1.0710413,1.47886 1.6210439,2.20726 0.6298115,0.81367 1.2670287,1.62139 1.9305322,2.40797 0.5906453,0.71512 1.206455,1.40947 1.8236591,2.10159 0.69345443,0.75999 1.39442563,1.51286 2.1195268,2.24285 1.6216207,1.64478 3.2646038,3.26847 4.8946964,4.90489 32.2157567,32.21578 64.4315147,64.43152 96.6472697,96.64727 0.12599,0.0269 0.25484,0.13763 0.37893,0.10917 0.16116,-0.0576 0.30274,-0.14346 0.40966,-0.27925 33.66415,-33.66415 67.3283,-67.32833 100.99246,-100.99249 0.71818,-0.74773 1.45452,-1.48198 2.1472,-2.25533 0.68162,-0.73223 1.33501,-1.4905 1.98408,-2.25147 0.66392,-0.79542 1.31996,-1.59711 1.95009,-2.41964 0.55745,-0.71393 1.0905,-1.44698 1.62105,-2.18099 0.59282,-0.84077 1.17816,-1.68664 1.73513,-2.55172 0.5065,-0.76819 0.98563,-1.55443 1.46251,-2.34119 0.52253,-0.8862 1.0381,-1.77634 1.52279,-2.68396 0.44225,-0.80696 0.85598,-1.62957 1.26783,-2.45235 0.45225,-0.93233 0.89593,-1.86862 1.30892,-2.81908 0.37229,-0.83352 0.71461,-1.68039 1.05518,-2.52722 0.37508,-0.96578 0.74176,-1.93461 1.07606,-2.91539 0.30335,-0.86106 0.57635,-1.73284 0.84712,-2.60453 0.29559,-0.99306 0.58179,-1.98872 0.83534,-2.99344 0.23236,-0.88284 0.43355,-1.7739 0.63291,-2.66466 0.21392,-1.01372 0.41833,-2.02923 0.58976,-3.0511 0.1601,-0.89871 0.28853,-1.80308 0.41436,-2.70708 0.12991,-1.02067 0.25136,-2.04226 0.33811,-3.06763 0.0878,-0.91593 0.14335,-1.83497 0.19593,-2.75347 0.0469,-1.03512 0.0847,-2.07048 0.0884,-3.10677 0.0124,-0.91289 -0.008,-1.82621 -0.0293,-2.7388 -0.0372,-1.03537 -0.0833,-2.07025 -0.16399,-3.10326 -0.0623,-0.91086 -0.15589,-1.81962 -0.25143,-2.72748 -0.12118,-1.02908 -0.25075,-2.057 -0.41508,-3.0802 -0.13565,-0.90276 -0.30337,-1.80071 -0.47212,-2.69775 -0.20413,-1.0159 -0.41757,-2.02976 -0.66424,-3.03629 -0.20844,-0.88871 -0.44815,-1.77008 -0.68903,-2.65041 -0.28588,-0.99603 -0.58052,-1.98937 -0.90821,-2.972554 -0.28006,-0.868815 -0.58994,-1.728054 -0.90212,-2.585725 -0.366,-0.969394 -0.74036,-1.935448 -1.14673,-2.888739 -0.3497,-0.843357 -0.72845,-1.674675 -1.10887,-2.50448 -0.44323,-0.936368 -0.89498,-1.868498 -1.37705,-2.785586 -0.42013,-0.818777 -0.86881,-1.622949 -1.31945,-2.425213 -0.5103,-0.885045 -1.02907,-1.765004 -1.57644,-2.627741 -0.48467,-0.782119 -0.99745,-1.546741 -1.51069,-2.310233 -0.58912,-0.852364 -1.18544,-1.699541 -1.80981,-2.526599 -0.54287,-0.733973 -1.1108,-1.449528 -1.68081,-2.162461 -0.65628,-0.801955 -1.31985,-1.597702 -2.00925,-2.37155 -0.60005,-0.687883 -1.22481,-1.354252 -1.85023,-2.019023 -0.71909,-0.745963 -1.44484,-1.485259 -2.19456,-2.200595 -0.65424,-0.636746 -1.3308,-1.250571 -2.00848,-1.862079 -0.77732,-0.685115 -1.56064,-1.363154 -2.36612,-2.015143 -0.70937,-0.586283 -1.43906,-1.148038 -2.17027,-1.706677 -0.82423,-0.615616 -1.65473,-1.222494 -2.50412,-1.803063 -0.74869,-0.522367 -1.51598,-1.018085 -2.28325,-1.512573 -0.87773,-0.550537 -1.76061,-1.092536 -2.66083,-1.605738 -0.78854,-0.460256 -1.59346,-0.892431 -2.39864,-1.32267 -0.91307,-0.473851 -1.83017,-0.939726 -2.76254,-1.374738 -0.83629,-0.40105 -1.68642,-0.773253 -2.53738,-1.141878 -0.94861,-0.398616 -1.90116,-0.787321 -2.86583,-1.145636 -0.85942,-0.328789 -1.73024,-0.627909 -2.60139,-0.923837 -0.97774,-0.320286 -1.95855,-0.630479 -2.94894,-0.909532 -0.87622,-0.256164 -1.76159,-0.481023 -2.64654,-0.704649 -1.00764,-0.241239 -2.01732,-0.473321 -3.03432,-0.672108 -0.89424,-0.184097 -1.79507,-0.336248 -2.69534,-0.487545 -1.02375,-0.158837 -2.04888,-0.307469 -3.07848,-0.42337 -0.91353,-0.111699 -1.83097,-0.191588 -2.74788,-0.268999 -1.02598,-0.07492 -2.05256,-0.139002 -3.08089,-0.170567 -0.91223,-0.03715 -1.82581,-0.04188 -2.7387,-0.04506 -1.03611,0.0089 -2.07193,0.02756 -3.10687,0.08002 -0.91226,0.03697 -1.82327,0.105857 -2.73336,0.177403 -1.02468,0.09265 -2.04846,0.193641 -3.06843,0.329433 -0.91331,0.111197 -1.82268,0.254966 -2.73095,0.401077 -1.02113,0.176604 -2.04054,0.362069 -3.05345,0.581533 -0.8941,0.184319 -1.78181,0.399809 -2.66832,0.617273 -1.00309,0.258849 -2.00374,0.526579 -2.99516,0.827439 -0.87636,0.256156 -1.74371,0.54311 -2.60975,0.8318 -0.97205,0.33706 -1.94098,0.682551 -2.89806,1.060294 -0.85963,0.328535 -1.70772,0.687361 -2.55415,1.048231 -0.94806,0.417796 -1.89198,0.844566 -2.82194,1.301517 -0.82989,0.397791 -1.64603,0.824318 -2.4601,1.253276 -0.90493,0.489424 -1.80454,0.988227 -2.68803,1.515549 -0.78865,0.45997 -1.56096,0.947849 -2.33172,1.436958 -0.86815,0.565644 -1.7313,1.138634 -2.5749,1.740487 -0.75427,0.527113 -1.49043,1.080222 -2.22451,1.634905 -0.80812,0.624962 -1.60973,1.257988 -2.39075,1.916671 -0.71509,0.590645 -1.40944,1.206455 -2.10156,1.823659 -0.75999,0.693452 -1.51286,1.394426 -2.24285,2.119548 -0.0947,0.171334 -0.18938,-0.06281 -0.28408,-0.120036 -0.80158,-0.7943 -1.63179,-1.55892 -2.46967,-2.314493 -0.783224,-0.689422 -1.570783,-1.373733 -2.382207,-2.029976 -0.714428,-0.59128 -1.449916,-1.157174 -2.186702,-1.720191 -0.824362,-0.615773 -1.654995,-1.222812 -2.504545,-1.803479 -0.748639,-0.522254 -1.515666,-1.01817 -2.282825,-1.512549 -0.877941,-0.550461 -1.760961,-1.09246 -2.661153,-1.605894 -0.788397,-0.460277 -1.593239,-0.892366 -2.39831,-1.322517 -0.919599,-0.477176 -1.843339,-0.94601 -2.78221,-1.384327 -0.823402,-0.394507 -1.660647,-0.760153 -2.497955,-1.123894 -0.955464,-0.400966 -1.914541,-0.79285 -2.885911,-1.153896 -0.852453,-0.326784 -1.716744,-0.622614 -2.580685,-0.917292 -0.984713,-0.322355 -1.972305,-0.635341 -2.969755,-0.916233 -0.876223,-0.256164 -1.761596,-0.481023 -2.646553,-0.704649 -1.007642,-0.241239 -2.017305,-0.473321 -3.034297,-0.672108 -0.894263,-0.184097 -1.795098,-0.336248 -2.695361,-0.487545 -1.023742,-0.158837 -2.048867,-0.307469 -3.078461,-0.42337 -0.913519,-0.111699 -1.830967,-0.191588 -2.747897,-0.268999 -1.025977,-0.07492 -2.052539,-0.139002 -3.080866,-0.170567 -0.828125,-0.03901 -1.65749,-0.03196 -2.486224,-0.04829 0.06157,0.02647 0.39487,0.165431 0.206402,0.0884 -0.149847,-0.08448 -0.312259,-0.102174 -0.481187,-0.08524 -0.558197,0.0076 -1.116396,0.01527 -1.674593,0.02289 z"
       id="rect1" />
    <path
       id="rect1-2-4"
       style="display:inline;fill:none;fill-opacity:1;fill-rule:evenodd;stroke:#000000;stroke-width:0.140205;stroke-linejoin:round;stroke-miterlimit:1.5;paint-order:fill markers stroke"
       d="M 51.812973,39.272616 C 36.173507,39.540665 20.623521,44.367761 7.6391955,53.102686 -4.3767995,61.128874 -14.226108,72.38706 -20.500115,85.410267 c -5.017239,10.337647 -7.852272,21.736703 -8.189788,33.225993 -0.376855,11.85885 1.861091,23.79555 6.529246,34.70472 4.139713,9.70925 10.177667,18.60235 17.6667955,26.03952 4.17937659,4.20468 8.3848341,8.3833 12.5717207,12.58047 28.8513938,28.84847 57.7021268,57.69774 86.5590638,86.54047 2.878312,2.70245 7.156557,3.85604 10.989967,2.86086 2.3717,-0.5801 4.50795,-1.95323 6.14545,-3.7492 21.45139,-21.42887 42.87872,-42.88179 64.31738,-64.32341 11.78801,-11.79267 23.57538,-23.58607 35.35984,-35.38225 8.10858,-8.49355 14.40241,-18.72346 18.25401,-29.82043 5.2061,-14.91723 5.97132,-31.36102 2.10727,-46.68536 -2.94923,-11.862121 -8.58729,-23.051633 -16.39835,-32.456095 -7.34798,-8.873564 -16.58358,-16.181459 -26.92945,-21.254985 -10.93356,-5.381927 -23.07944,-8.292367 -35.26729,-8.40862 -11.18857,-0.125026 -22.39904,2.070793 -32.70745,6.424753 -6.31438,2.663 -12.29836,6.113042 -17.75174,10.264397 C 89.76171,46.072397 73.744802,40.180428 57.422703,39.384609 c -1.8679,-0.102066 -3.73929,-0.130792 -5.60973,-0.111993 z"
       transform="translate(0.17618077,0.05581063)" />
  </g>
</svg>
