<?xml version="1.0" encoding="UTF-8" standalone="no"?>
<!-- Created with Inkscape (http://www.inkscape.org/) -->

<svg
   width="10.353323in"
   height="9.5452204in"
   viewBox="0 0 262.97441 242.4486"
   version="1.1"
   id="svg5"
   inkscape:version="1.4.2 (ebf0e940, 2025-05-08)"
   sodipodi:docname="black-led-103x95.svg"
   xmlns:inkscape="http://www.inkscape.org/namespaces/inkscape"
   xmlns:sodipodi="http://sodipodi.sourceforge.net/DTD/sodipodi-0.dtd"
   xmlns="http://www.w3.org/2000/svg"
   xmlns:svg="http://www.w3.org/2000/svg">
  <sodipodi:namedview
     id="namedview7"
     pagecolor="#ffffff"
     bordercolor="#000000"
     borderopacity="0.25"
     inkscape:showpageshadow="2"
     inkscape:pageopacity="0.0"
     inkscape:pagecheckerboard="0"
     inkscape:deskcolor="#d1d1d1"
     inkscape:document-units="in"
     showgrid="false"
     inkscape:zoom="0.41994281"
     inkscape:cx="538.16852"
     inkscape:cy="427.43916"
     inkscape:window-width="1728"
     inkscape:window-height="1056"
     inkscape:window-x="0"
     inkscape:window-y="33"
     inkscape:window-maximized="1"
     inkscape:current-layer="layer1" />
  <defs
     id="defs2" />
  <g
     inkscape:label="front-clear"
     inkscape:groupmode="layer"
     id="layer1"
     transform="translate(28.730708,-39.267224)"
     style="display:inline">
    <path
       id="rect1-2-4"
       style="display:inline;fill:none;fill-opacity:1;fill-rule:evenodd;stroke:#000000;stroke-width:0.140205;stroke-linejoin:round;stroke-miterlimit:1.5;paint-order:fill markers stroke"
       d="M 51.812973,39.272616 C 36.173507,39.540665 20.623521,44.367761 7.6391955,53.102686 -4.3767995,61.128874 -14.226108,72.38706 -20.500115,85.410267 c -5.017239,10.337647 -7.852272,21.736703 -8.189788,33.225993 -0.376855,11.85885 1.861091,23.79555 6.529246,34.70472 4.139713,9.70925 10.177667,18.60235 17.6667955,26.03952 4.17937659,4.20468 8.3848341,8.3833 12.5717207,12.58047 28.8513938,28.84847 57.7021268,57.69774 86.5590638,86.54047 2.878312,2.70245 7.156557,3.85604 10.989967,2.86086 2.3717,-0.5801 4.50795,-1.95323 6.14545,-3.7492 21.45139,-21.42887 42.87872,-42.88179 64.31738,-64.32341 11.78801,-11.79267 23.57538,-23.58607 35.35984,-35.38225 8.10858,-8.49355 14.40241,-18.72346 18.25401,-29.82043 5.2061,-14.91723 5.97132,-31.36102 2.10727,-46.68536 -2.94923,-11.862121 -8.58729,-23.051633 -16.39835,-32.456095 -7.34798,-8.873564 -16.58358,-16.181459 -26.92945,-21.254985 -10.93356,-5.381927 -23.07944,-8.292367 -35.26729,-8.40862 -11.18857,-0.125026 -22.39904,2.070793 -32.70745,6.424753 -6.31438,2.663 -12.29836,6.113042 -17.75174,10.264397 C 89.76171,46.072397 73.744802,40.180428 57.422703,39.384609 c -1.8679,-0.102066 -3.73929,-0.130792 -5.60973,-0.111993 z" />
  </g>
  <g
     inkscape:label="red-heart"
     inkscape:groupmode="layer"
     id="layer1-9"
     transform="translate(28.554528,-39.323034)"
     style="display:inline" />
</svg>
