<?xml version="1.0" encoding="UTF-8" standalone="no"?>
<!-- Created with Inkscape (http://www.inkscape.org/) -->

<svg
   width="10.353328in"
   height="9.5452166in"
   viewBox="0 0 262.97453 242.4485"
   version="1.1"
   id="svg5"
   inkscape:version="1.4.2 (ebf0e940, 2025-05-08)"
   sodipodi:docname="red-heart-ring.svg"
   xmlns:inkscape="http://www.inkscape.org/namespaces/inkscape"
   xmlns:sodipodi="http://sodipodi.sourceforge.net/DTD/sodipodi-0.dtd"
   xmlns="http://www.w3.org/2000/svg"
   xmlns:svg="http://www.w3.org/2000/svg">
  <sodipodi:namedview
     id="namedview7"
     pagecolor="#ffffff"
     bordercolor="#000000"
     borderopacity="0.25"
     inkscape:showpageshadow="2"
     inkscape:pageopacity="0.0"
     inkscape:pagecheckerboard="0"
     inkscape:deskcolor="#d1d1d1"
     inkscape:document-units="in"
     showgrid="false"
     inkscape:zoom="0.69567137"
     inkscape:cx="461.42477"
     inkscape:cy="414.70731"
     inkscape:window-width="1728"
     inkscape:window-height="1056"
     inkscape:window-x="0"
     inkscape:window-y="33"
     inkscape:window-maximized="1"
     inkscape:current-layer="layer1" />
  <defs
     id="defs2" />
  <g
     inkscape:label="Layer 1"
     inkscape:groupmode="layer"
     id="layer1"
     transform="translate(28.790152,-39.416618)">
    <path
       id="rect1-2"
       style="fill:none;fill-opacity:1;fill-rule:evenodd;stroke:#000000;stroke-width:0.529907;stroke-linejoin:round;stroke-miterlimit:1.5;paint-order:fill markers stroke"
       d="m 863.45734,631.64153 c -59.10979,1.0131 -117.88139,19.25724 -166.95601,52.27113 -45.41481,30.3352 -82.64055,72.88582 -106.35332,122.10739 -18.96278,39.07142 -29.67786,82.15431 -30.95351,125.57821 -1.42433,44.82086 7.03404,89.93594 24.67745,131.16744 15.64615,36.6964 38.46675,70.3081 66.77213,98.4171 15.79608,15.8917 31.69073,31.6849 47.51519,47.5482 109.04464,109.0336 218.08678,218.0702 327.15273,327.0821 10.8787,10.214 27.0485,14.574 41.537,10.8127 8.9639,-2.1925 17.0379,-7.3823 23.2269,-14.1702 81.0761,-80.991 162.0613,-162.0729 243.0893,-243.1121 44.5531,-44.5707 89.1038,-89.1442 133.6435,-133.7282 30.6466,-32.1016 54.4343,-70.7658 68.9915,-112.7071 19.6766,-56.38008 22.5688,-118.52985 7.9645,-176.44831 -11.1467,-44.83318 -32.4559,-87.12425 -61.978,-122.66867 -27.7719,-33.53788 -62.6781,-61.15827 -101.7806,-80.3338 -41.3237,-20.34114 -87.2294,-31.34123 -133.2937,-31.78061 -42.2875,-0.47254 -84.6578,7.82662 -123.6187,24.28253 -23.8654,10.06488 -46.482,23.10441 -67.0932,38.79457 -49.1146,-37.41242 -109.65121,-59.68128 -171.34103,-62.6891 -7.05978,-0.38576 -14.13275,-0.49433 -21.20213,-0.42328 z"
       transform="matrix(0.26458334,0,0,0.26458334,-176.70289,-127.69981)" />
    <path
       id="rect1"
       style="fill:#ffffff;fill-opacity:1;fill-rule:evenodd;stroke:#000000;stroke-width:0.540721;stroke-linejoin:round;stroke-miterlimit:1.5;paint-order:fill markers stroke"
       d="m 857.48587,668.19313 c -4.17551,0.16064 -8.35132,0.3157 -12.51758,0.64714 -3.49744,0.23436 -6.98629,0.59516 -10.47189,0.96139 -3.88941,0.45794 -7.77444,0.94772 -11.64144,1.57 -3.4123,0.51413 -6.80698,1.14586 -10.19794,1.78327 -3.83905,0.77159 -7.67038,1.57835 -11.4741,2.51044 -3.35885,0.78779 -6.68999,1.69382 -10.01723,2.6042 -3.7645,1.08047 -7.51885,2.19403 -11.23481,3.43261 -3.28371,1.05848 -6.53124,2.22975 -9.77282,3.40959 -3.66383,1.38332 -7.31507,2.79823 -10.91824,4.33379 -3.18712,1.3212 -6.32868,2.75264 -9.46401,4.19132 -3.53988,1.67556 -7.06459,3.38169 -10.53115,5.20511 -3.09396,1.5881 -6.13305,3.2834 -9.16478,4.98633 -3.34504,1.92878 -6.67089,3.88946 -9.93162,5.95835 -2.95635,1.83205 -5.84715,3.76969 -8.7332,5.70965 -3.19921,2.21096 -6.37873,4.44932 -9.48248,6.79316 -2.79782,2.06557 -5.52412,4.22827 -8.23988,6.39977 -3.03028,2.48065 -6.0372,4.98882 -8.96173,7.59394 -2.6,2.2685 -5.1198,4.62894 -7.63264,6.99294 -2.81946,2.71775 -5.61358,5.46088 -8.31661,8.29508 -2.40658,2.47315 -4.72686,5.03038 -7.03987,7.59061 -2.58903,2.93733 -5.14872,5.89953 -7.61387,8.94208 -2.1996,2.65845 -4.30314,5.39636 -6.39914,8.13663 -2.34279,3.13834 -4.65797,6.29651 -6.86695,9.53098 -1.97429,2.82972 -3.84787,5.72971 -5.71681,8.62955 -2.08012,3.31816 -4.13137,6.65368 -6.06966,10.05718 -1.73701,2.98143 -3.37234,6.0223 -4.99833,9.0652 -1.79093,3.45114 -3.55172,6.91722 -5.19586,10.44116 -1.51592,3.16045 -2.92109,6.37411 -4.31414,9.59008 -1.50652,3.58532 -2.97571,7.18551 -4.33061,10.83124 -1.24315,3.24822 -2.37402,6.53959 -3.49265,9.83229 -1.21071,3.69528 -2.3829,7.4024 -3.4362,11.14601 -0.96706,3.31189 -1.81806,6.65768 -2.66302,10.00231 -0.91177,3.80842 -1.78892,7.62447 -2.54026,11.46821 -0.69556,3.38003 -1.27234,6.78455 -1.8443,10.18719 -0.59555,3.84266 -1.15563,7.6901 -1.58894,11.55484 -0.42713,3.47926 -0.73129,6.97364 -1.02627,10.46605 -0.28317,3.87771 -0.52536,7.75763 -0.64466,11.64422 -0.14002,3.44792 -0.16006,6.90078 -0.17172,10.35105 0.0346,3.91595 0.10591,7.83092 0.30386,11.74244 0.13973,3.44798 0.40009,6.89119 0.6705,10.33091 0.35165,3.89978 0.73912,7.79567 1.254,11.67771 0.41784,3.42503 0.95882,6.83501 1.50698,10.24113 0.66748,3.85939 1.36844,7.71233 2.19792,11.54065 0.69664,3.37926 1.51109,6.73437 2.33301,10.08497 0.97846,3.7912 1.99023,7.5731 3.12625,11.3206 0.9673,3.3123 2.05237,6.5902 3.14327,9.8633 1.27393,3.6738 2.57972,7.3359 4.00741,10.9532 1.24145,3.2495 2.59954,6.4542 3.96326,9.6536 1.57813,3.5835 3.19045,7.1511 4.91767,10.6656 1.49031,3.1123 3.09213,6.1712 4.69726,9.2254 1.8645,3.4438 3.76169,6.8691 5.76921,10.2321 1.73859,2.9802 3.58085,5.9 5.42955,8.8127 2.13875,3.2809 4.30502,6.5432 6.57969,9.732 1.97444,2.8293 4.04803,5.5894 6.12678,8.3424 2.38039,3.0753 4.78877,6.1281 7.2965,9.101 2.23236,2.7028 4.55983,5.3271 6.89257,7.943 2.62093,2.8724 5.27027,5.7179 8.01081,8.4769 6.12896,6.2165 12.33866,12.3533 18.49964,18.5382 121.76034,121.7604 243.52069,243.5207 365.281,365.281 0.4762,0.1016 0.9632,0.5202 1.4322,0.4126 0.6091,-0.2178 1.1442,-0.5422 1.5483,-1.0554 127.2346,-127.2346 254.4692,-254.4693 381.7038,-381.7039 2.7144,-2.8261 5.4974,-5.6012 8.1154,-8.5241 2.5762,-2.7675 5.0457,-5.6334 7.4989,-8.5095 2.5093,-3.0063 4.9888,-6.0363 7.3704,-9.1451 2.1069,-2.6983 4.1216,-5.4689 6.1268,-8.2431 2.2406,-3.1777 4.4529,-6.3747 6.558,-9.6443 1.9143,-2.9034 3.7252,-5.875 5.5276,-8.8486 1.9749,-3.3494 3.9235,-6.7137 5.7554,-10.1441 1.6715,-3.0499 3.2352,-6.159 4.7918,-9.2687 1.7093,-3.5238 3.3862,-7.0625 4.9471,-10.6548 1.4071,-3.1503 2.7009,-6.3511 3.9881,-9.5517 1.4176,-3.6502 2.8035,-7.3119 4.067,-11.0188 1.1465,-3.2544 2.1783,-6.5493 3.2017,-9.8439 1.1172,-3.7533 2.1989,-7.5164 3.1572,-11.3138 0.8782,-3.3367 1.6386,-6.7045 2.3921,-10.07114 0.8085,-3.83137 1.5811,-7.66952 2.229,-11.53172 0.6051,-3.39671 1.0905,-6.81477 1.5661,-10.23147 0.491,-3.85765 0.95,-7.71879 1.2779,-11.59419 0.3318,-3.46181 0.5418,-6.93534 0.7405,-10.40683 0.1772,-3.91226 0.3201,-7.82545 0.334,-11.74212 0.047,-3.45028 -0.029,-6.90223 -0.1107,-10.35137 -0.1407,-3.9132 -0.3148,-7.82458 -0.6198,-11.72886 -0.2354,-3.44263 -0.5892,-6.87731 -0.9503,-10.3086 -0.458,-3.88938 -0.9477,-7.77442 -1.5688,-11.6416 -0.5127,-3.412 -1.1466,-6.8058 -1.7844,-10.19616 -0.7715,-3.83962 -1.5782,-7.67149 -2.5105,-11.47571 -0.7878,-3.35886 -1.6938,-6.69 -2.6042,-10.01723 -1.0805,-3.76449 -2.1941,-7.51884 -3.4326,-11.23481 -1.0585,-3.28371 -2.2297,-6.53123 -3.4096,-9.77282 -1.3833,-3.66385 -2.7982,-7.31508 -4.3341,-10.91807 -1.3217,-3.18749 -2.7532,-6.32948 -4.191,-9.46575 -1.6752,-3.53903 -3.3826,-7.06204 -5.2046,-10.5282 -1.5879,-3.09459 -3.2837,-6.13398 -4.9869,-9.16616 -1.9287,-3.34505 -3.8894,-6.67088 -5.9582,-9.93162 -1.8318,-2.95604 -3.7699,-5.84595 -5.7097,-8.73159 -2.2266,-3.22153 -4.4804,-6.42346 -6.8402,-9.54935 -2.0518,-2.77407 -4.1983,-5.47853 -6.3527,-8.17308 -2.4804,-3.03101 -4.9884,-6.03856 -7.594,-8.96334 -2.2679,-2.59987 -4.6292,-5.11843 -6.993,-7.63095 -2.7178,-2.81939 -5.4608,-5.61358 -8.2944,-8.31721 -2.4727,-2.4066 -5.0298,-4.72657 -7.5911,-7.03778 -2.9379,-2.58941 -5.8985,-5.15208 -8.9428,-7.61629 -2.6811,-2.21587 -5.439,-4.33904 -8.2026,-6.45043 -3.1152,-2.32674 -6.2541,-4.62045 -9.4644,-6.81473 -2.8297,-1.9743 -5.7297,-3.84788 -8.6296,-5.71681 -3.3174,-2.08077 -6.6543,-4.12927 -10.0567,-6.06893 -2.9803,-1.73955 -6.0225,-3.37297 -9.0657,-4.99907 -3.451,-1.79093 -6.9172,-3.55172 -10.4411,-5.19586 -3.1608,-1.51578 -6.3739,-2.92253 -9.5901,-4.31576 -3.5853,-1.50658 -7.1855,-2.9757 -10.8315,-4.32996 -3.2482,-1.24267 -6.5395,-2.3732 -9.832,-3.49167 -3.6954,-1.21053 -7.4024,-2.38291 -11.1456,-3.4376 -3.3117,-0.96818 -6.658,-1.81804 -10.0027,-2.66324 -3.8084,-0.91177 -7.6245,-1.78893 -11.4683,-2.54025 -3.3798,-0.6958 -6.7845,-1.27086 -10.1871,-1.84269 -3.8693,-0.60033 -7.7438,-1.16209 -11.6352,-1.60014 -3.4527,-0.42217 -6.9202,-0.72411 -10.3857,-1.01669 -3.8777,-0.28317 -7.7577,-0.52536 -11.6443,-0.64466 -3.4478,-0.1404 -6.9007,-0.1583 -10.351,-0.1703 -3.916,0.0336 -7.8309,0.10418 -11.7425,0.30244 -3.4479,0.13973 -6.8911,0.40009 -10.3308,0.6705 -3.8728,0.35016 -7.7422,0.73187 -11.5972,1.2451 -3.4519,0.42027 -6.8889,0.96365 -10.3217,1.51588 -3.8594,0.66748 -7.7123,1.36845 -11.5406,2.19792 -3.3793,0.69664 -6.7344,1.51109 -10.085,2.333 -3.7912,0.97833 -7.5732,1.99022 -11.3203,3.12733 -3.3122,0.96815 -6.5904,2.0527 -9.8636,3.14381 -3.6739,1.27393 -7.336,2.57972 -10.9533,4.00741 -3.249,1.24171 -6.4544,2.5979 -9.6535,3.96182 -3.5832,1.57907 -7.1508,3.19206 -10.6656,4.91912 -3.1366,1.50346 -6.2212,3.11553 -9.298,4.73679 -3.4202,1.84979 -6.8203,3.73503 -10.1595,5.72806 -2.9807,1.73847 -5.8997,3.58242 -8.8128,5.43102 -3.2812,2.13787 -6.5435,4.3035 -9.7319,6.57822 -2.8508,1.99224 -5.6331,4.08273 -8.4076,6.17917 -3.0543,2.36206 -6.084,4.7546 -9.0359,7.24411 -2.7027,2.23236 -5.327,4.55983 -7.9429,6.89257 -2.8724,2.62092 -5.7179,5.27027 -8.4769,8.01089 -0.3578,0.64756 -0.7158,-0.23738 -1.0737,-0.45368 -3.0296,-3.00208 -6.1674,-5.89198 -9.3342,-8.74769 -2.9602,-2.60569 -5.9368,-5.19206 -9.0036,-7.67235 -2.7002,-2.23476 -5.48,-4.37357 -8.2647,-6.50151 -3.1157,-2.32733 -6.2551,-4.62165 -9.466,-6.8163 -2.8295,-1.97387 -5.7285,-3.8482 -8.628,-5.71672 -3.3182,-2.08048 -6.6556,-4.12898 -10.0579,-6.06952 -2.97977,-1.73963 -6.02169,-3.37272 -9.06448,-4.99849 -3.47565,-1.8035 -6.96695,-3.57547 -10.51544,-5.2321 -3.11207,-1.49105 -6.27646,-2.87302 -9.44109,-4.24779 -3.6112,-1.51546 -7.23606,-2.9966 -10.90738,-4.36118 -3.22187,-1.23509 -6.48848,-2.35319 -9.75377,-3.46693 -3.72175,-1.21835 -7.45438,-2.40129 -11.22427,-3.46293 -3.31171,-0.96818 -6.658,-1.81804 -10.00272,-2.66324 -3.80841,-0.91177 -7.62446,-1.78893 -11.46821,-2.54025 -3.37989,-0.6958 -6.78462,-1.27086 -10.18719,-1.84269 -3.86926,-0.60033 -7.74375,-1.16209 -11.63513,-1.60014 -3.45267,-0.42217 -6.92019,-0.72411 -10.38575,-1.01669 -3.87771,-0.28317 -7.75763,-0.52536 -11.64422,-0.64466 -3.12992,-0.14742 -6.26453,-0.12079 -9.39675,-0.18253 0.2327,0.10005 1.49242,0.62525 0.7801,0.3341 -0.56635,-0.31931 -1.18019,-0.38617 -1.81866,-0.32216 -2.10972,0.0289 -4.21945,0.0577 -6.32917,0.0865 z"
       transform="matrix(0.26458334,0,0,0.26458334,-176.70272,-128.22858)" />
  </g>
</svg>
