<?xml version="1.0" encoding="UTF-8" standalone="no"?>
<!-- Created with Inkscape (http://www.inkscape.org/) -->

<svg
   width="18.196762in"
   height="12.145508in"
   viewBox="0 0 462.19778 308.4959"
   version="1.1"
   id="svg5"
   inkscape:version="1.4.2 (ebf0e940, 2025-05-08)"
   xml:space="preserve"
   sodipodi:docname="shark-clear.svg"
   xmlns:inkscape="http://www.inkscape.org/namespaces/inkscape"
   xmlns:sodipodi="http://sodipodi.sourceforge.net/DTD/sodipodi-0.dtd"
   xmlns="http://www.w3.org/2000/svg"
   xmlns:svg="http://www.w3.org/2000/svg"><sodipodi:namedview
     id="namedview7"
     pagecolor="#ffffff"
     bordercolor="#000000"
     borderopacity="0.25"
     inkscape:showpageshadow="2"
     inkscape:pageopacity="0.0"
     inkscape:pagecheckerboard="0"
     inkscape:deskcolor="#d1d1d1"
     inkscape:document-units="in"
     showgrid="false"
     inkscape:zoom="0.267855"
     inkscape:cx="265.06879"
     inkscape:cy="632.80507"
     inkscape:window-width="1728"
     inkscape:window-height="1056"
     inkscape:window-x="0"
     inkscape:window-y="33"
     inkscape:window-maximized="1"
     inkscape:current-layer="layer1" /><defs
     id="defs2" /><g
     inkscape:label="Layer 1"
     inkscape:groupmode="layer"
     id="layer1"
     transform="translate(85.442082,-25.54297)"><path
       id="path1"
       style="fill:none;stroke:#000000;stroke-width:0.561353;stroke-opacity:1"
       d="m -13.839609,25.54297 c -2.491698,0.141643 -3.676913,3.646305 -2.006595,5.39967 12.0159542,10.900996 22.6917311,23.379304 30.958834,37.368779 7.104125,12.044395 12.290849,25.238019 15.004769,38.944391 1.90181,9.48377 2.616072,19.11608 2.284098,28.79256 0.01823,1.27894 -0.140269,2.5723 -0.01085,3.84214 0.07999,0.33436 0.220836,0.65243 0.406177,0.94155 -9.558581,3.83166 -18.875202,8.27723 -27.7962366,13.4245 -23.9610024,13.68557 -45.3074484,31.4225 -65.4797254,50.13441 -6.413806,5.95992 -12.769523,11.98947 -19.000391,18.13791 -3.228805,3.82213 -5.362839,8.60089 -5.944856,13.57488 -0.144896,2.2764 0.61353,4.51061 1.780769,6.43785 9.36286,18.76227 18.726508,37.5239 28.088726,56.28649 20.722253,-12.9197 43.482589,-22.70932 67.292017,-28.24685 16.09805,-3.81366 32.621333,-5.87904 49.155657,-6.69107 4.749972,-0.2611 9.756282,-0.80512 13.819312,-3.49901 0.70993,-0.65747 0.288441,0.0827 0.0832,0.57723 -3.677198,8.72337 -7.358253,17.47256 -11.800314,25.82529 -8.115859,15.54409 -17.797945,30.16094 -27.889254,44.47946 -0.639948,0.92199 -1.279623,1.84424 -1.920296,2.76572 10.29221,-0.24545 20.530416,-2.53979 29.918071,-6.77323 14.751421,-6.49045 27.930775,-16.03154 40.153617,-26.43559 12.8364,-10.97813 24.66024,-23.10995 35.59266,-35.97455 5.82687,3.35647 11.83768,6.34937 17.48782,9.99319 6.74931,4.99863 11.46299,12.28167 14.58929,19.98586 4.68786,11.31035 6.88232,23.36127 9.77047,35.22214 0.17208,0.73584 0.34396,1.47156 0.51728,2.2071 12.36139,-12.58122 21.11364,-28.57716 25.41188,-45.65872 2.40134,-9.61 3.3606,-19.80724 1.12913,-29.54445 -0.50998,-2.0882 -1.17011,-4.14474 -2.05465,-6.10557 18.75744,-6.71304 37.13158,-14.51514 54.91138,-23.50244 11.4019,-5.85292 22.57137,-12.31617 32.60369,-20.33778 4.17214,-3.39224 8.04324,-7.20659 11.19002,-11.58172 4.07118,-1.07317 8.14863,-2.09287 12.22664,-3.14037 20.15254,-15.86267 38.84178,-33.78455 54.27628,-54.32692 1.97075,-2.59673 3.90284,-5.22411 5.84667,-7.84293 -16.84508,-5.35121 -33.6645,-10.79093 -50.54679,-16.01918 -46.93643,-10.42133 -95.43581,-13.87545 -143.36696,-9.972 -15.36897,1.20746 -30.67846,3.13312 -45.87885,5.69577 -0.19537,-0.77157 -1.05463,-1.17782 -1.52911,-1.79007 C 115.8562,88.659468 95.64883,69.523575 72.473987,54.336561 53.186419,41.622273 31.638989,31.915322 8.8024205,27.869443 1.3274919,26.529671 -6.2491649,25.75406 -13.839609,25.54297 Z m -60.420085,195.82836 c 0.67546,0.27828 -0.22691,0.35574 0,0 z" /></g></svg>
