<?xml version="1.0" encoding="UTF-8" standalone="no"?>
<!-- Created with Inkscape (http://www.inkscape.org/) -->

<svg
   width="27.5in"
   height="27.5in"
   viewBox="0 0 698.50003 698.5"
   version="1.1"
   id="svg5"
   inkscape:version="1.4.2 (ebf0e940, 2025-05-08)"
   xml:space="preserve"
   sodipodi:docname="shark-white.svg"
   xmlns:inkscape="http://www.inkscape.org/namespaces/inkscape"
   xmlns:sodipodi="http://sodipodi.sourceforge.net/DTD/sodipodi-0.dtd"
   xmlns="http://www.w3.org/2000/svg"
   xmlns:svg="http://www.w3.org/2000/svg"><sodipodi:namedview
     id="namedview7"
     pagecolor="#ffffff"
     bordercolor="#000000"
     borderopacity="0.25"
     inkscape:showpageshadow="2"
     inkscape:pageopacity="0.0"
     inkscape:pagecheckerboard="0"
     inkscape:deskcolor="#d1d1d1"
     inkscape:document-units="in"
     showgrid="false"
     inkscape:zoom="0.20372311"
     inkscape:cx="1261.5162"
     inkscape:cy="1622.3"
     inkscape:window-width="1728"
     inkscape:window-height="1056"
     inkscape:window-x="0"
     inkscape:window-y="33"
     inkscape:window-maximized="1"
     inkscape:current-layer="layer1" /><defs
     id="defs2" /><g
     inkscape:label="Layer 1"
     inkscape:groupmode="layer"
     id="layer1"
     transform="translate(220.53394,161.93588)"><circle
       class="st4"
       cx="128.71606"
       cy="187.31413"
       r="349.25"
       id="circle1"
       style="fill:none;fill-opacity:1;stroke:#000000;stroke-width:0.254;stroke-miterlimit:10;stroke-dasharray:none;stroke-opacity:1" /><path
       style="fill:none;stroke:#000000;stroke-width:0.561353;stroke-opacity:1"
       d="m 342.61513,146.35472 c 1.67127,-0.0325 3.15688,0.0189 4.42764,0.16485 -12.93919,13.09074 -27.26497,32.48018 -44.53217,37.14502 -26.24324,7.08989 -51.98682,7.06741 -78.53319,17.35139 l 44.11669,8.44807 c -20.68024,12.96725 -48.77573,25.07017 -71.97081,33.77675 -0.006,-0.0113 -0.0167,-0.0162 -0.0227,-0.0222 0,0 -29.88071,9.06573 -36.37556,9.77304 -5.35134,0.58278 -14.78051,1.38661 -17.93482,1.65158 3.79927,-7.56494 12.44471,-27.97348 12.44471,-27.97348 l -25.51885,-8.47081 22.93658,-3.60959 c 2.77308,-0.43785 9.82374,5.83225 9.45886,6.28695 l 37.77909,-24.5308 c 14.33695,-9.31285 25.49105,-20.80942 42.35969,-26.03562 9.47283,-4.05226 76.2958,-23.46812 101.36487,-23.95513 z"
       id="path2" /><path
       style="fill:none;stroke:#000000;stroke-width:0.561353;stroke-opacity:1"
       d="m -12.127567,29.298296 c 32.221639,29.81905 50.285828,66.228434 48.158302,108.947354 8.830076,-5.9335 17.469445,-7.48302 25.631511,-4.96817 l -28.089759,11.21585 c -42.9266305,17.14371 -76.972675,48.12475 -110.008275,80.17237 l 0.0052,-0.0114 c -2.56538,2.48678 -6.618145,10.78919 -4.894792,14.24151 l 27.292908,54.68142 c 36.448625,-21.98256 73.638269,-31.48086 115.167133,-33.41191 18.749176,-0.87011 12.950635,-9.48116 20.972364,-19.47323 1.414608,-1.76265 3.968804,-4.82768 7.247103,-4.87258 l -14.062191,33.55196 c -8.959187,21.36508 -20.124364,39.72143 -34.612875,60.37358 40.706061,-4.18371 86.359858,-56.31412 97.307238,-69.5942 l 18.51102,10.28206 c 17.35702,11.3281 21.74668,32.68166 26.71465,54.08042 17.80049,-20.30974 29.11173,-56.88194 17.22789,-75.63673 5.08024,-1.53812 84.85438,-29.77409 101.68372,-56.59551 l 12.8266,-3.27836 c 20.73637,-16.42518 39.01972,-33.97843 55.74802,-56.82547 l -44.40297,-14.15728 c -68.61412,-15.34739 -136.2571,-15.3192 -206.42617,-1.17874 2.35768,-2.15559 5.83823,-4.22719 11.51351,-7.50548 C 91.678067,69.743582 47.68455,31.538093 -12.127567,29.298296 Z"
       id="path1" /></g></svg>
