<?xml version="1.0" encoding="UTF-8" standalone="no"?>
<!-- Created with Inkscape (http://www.inkscape.org/) -->

<svg
   width="14.70082in"
   height="15.214401in"
   viewBox="0 0 373.40084 386.44579"
   version="1.1"
   id="svg5"
   inkscape:version="1.4.2 (ebf0e940, 2025-05-08)"
   xml:space="preserve"
   sodipodi:docname="unicorn-black.svg"
   xmlns:inkscape="http://www.inkscape.org/namespaces/inkscape"
   xmlns:sodipodi="http://sodipodi.sourceforge.net/DTD/sodipodi-0.dtd"
   xmlns="http://www.w3.org/2000/svg"
   xmlns:svg="http://www.w3.org/2000/svg"><sodipodi:namedview
     id="namedview7"
     pagecolor="#ffffff"
     bordercolor="#000000"
     borderopacity="0.25"
     inkscape:showpageshadow="2"
     inkscape:pageopacity="0.0"
     inkscape:pagecheckerboard="0"
     inkscape:deskcolor="#d1d1d1"
     inkscape:document-units="in"
     showgrid="false"
     inkscape:zoom="0.31666667"
     inkscape:cx="704.21052"
     inkscape:cy="727.89473"
     inkscape:window-width="1728"
     inkscape:window-height="1056"
     inkscape:window-x="0"
     inkscape:window-y="33"
     inkscape:window-maximized="1"
     inkscape:current-layer="layer1" /><defs
     id="defs2" /><g
     inkscape:label="Layer 1"
     inkscape:groupmode="layer"
     id="layer1"
     transform="translate(57.984353,5.9087708)"><g
       id="g55"
       transform="matrix(2.7394251,0,0,2.7394251,-656.59212,-12.045083)"
       style="fill:none;fill-opacity:1;stroke:#000000;stroke-width:0.0927202;stroke-dasharray:none;stroke-opacity:1"><path
         d="m 304.29,78.23 c -0.54,-3.65 -2.35,-7.49 -3.91,-10.99 -4.23,-9.46 -8.73,-18.15 -19.26,-21.71 -1.35,-6.7 -3.72,-13.19 -9.55,-19.29 -1.49,5.01 -1.77,10.81 -0.99,16.05 l -7.51,5.47 c -2.31,1.68 -7.77,2.76 -11.43,3.47 -7.73,11.01 -17.41,20.59 -28.72,28.53 -1.54,3.25 -1.38,9.88 1.16,13.27 1.38,1.84 6.23,0.28 10.44,-0.81 l -4.08,4.86 c 5.27,3.06 6.3,-3.04 9.14,-4.57 4.86,-2.62 10.91,-4.09 16.09,-5.53 9.71,5.69 18.49,1.17 24.16,-8.11 1.51,7.5 -5.04,11.12 -10.52,13.7 0.78,11.34 -1.75,21.14 -7.83,30.82 -5.48,8.74 -8.18,24.34 -9.88,18.73 -3.32,-10.96 17.17,-28.52 13.92,-48.38 -19.88,-7.02 -27,6.55 -30.79,7.34 -3.78,0.79 -13.57,-4.86 -14.55,-6.97 -1.98,-4.27 -2.62,-13.34 0.49,-16.44 10.2,-8.7 19.43,-16.2 26.69,-26.83 -6.49,-2.64 -8.72,-10.19 -4.7,-14.97 0.47,4.95 1.76,8.89 5.21,9.54 -0.78,-4.32 1.3,-7.33 5.22,-10.45 L 240.82,7.34 239.65,4.12 c -0.22,-0.61 1.77,-1.62 2.55,-1.88 l 18.73,25.86 c 1.04,1.43 5.23,2 5.99,0.75 l 2.84,-9.41 8.92,10.52 c 14.94,-8.67 23.85,-0.95 20.98,-0.3 l -3.01,0.68 13.19,6.94 c 1.53,0.81 5.81,2.61 7.02,1.46 l 5.22,-4.98 c 1.22,6.25 -4.88,9.72 -8.61,11.82 l 10.84,10.24 c 1.28,1.21 5.49,2.91 6.91,2.04 1.63,-1 3.24,-3.22 5.88,-6.32 0.33,2.37 -0.2,6.4 -1.82,9.01 -1.47,2.36 -5.87,3.85 -9.27,4.27 l 6.05,10.15 c 1.18,1.99 6.06,4.29 8.1,3.19 1.91,-1.03 3.44,-4.79 5.37,-8.25 3.52,8.59 -3.73,17.8 -14.16,17.45 1.06,3.94 2.97,8.66 6.87,11.82 2.15,1.74 7.65,2 9.71,0.72 2.41,-1.5 3.95,-5.24 5.65,-9.27 3.28,6.37 -0.57,13.54 -5.31,17.32 -5.8,4.61 -12.6,5.02 -18.48,1.36 0.2,5.45 1.26,10.13 3.92,13.14 1.39,1.56 7.15,2.61 8.23,0.93 l 4.87,-7.56 c 1.61,6.88 -2.64,13.62 -8.8,16.65 -5.38,2.64 -10.46,0.77 -14.7,-3.17 -0.2,1.95 0.48,6.31 1.79,7.56 1.38,1.32 3.96,2.17 7.2,3.47 l -6.21,2.54 c -1.69,0.69 -4.88,-1.69 -5.82,-2.93 l -2.67,2.07 c -2.54,1.96 -15.8,-10.99 -8.93,-26.01 0.68,-1.49 1.18,-5.16 1.15,-6.73 -2.68,-5.55 -2.92,-12.95 -3.82,-19.03 l -1.77,-11.98 z"
         id="path54"
         style="fill:none;fill-opacity:1;stroke:#000000;stroke-width:0.0927202;stroke-dasharray:none;stroke-opacity:1" /><path
         d="m 263.29,58.44 c -2.49,4.84 -6.05,6.67 -12.75,5.22 0.8,-1.55 2.04,-4.1 3.38,-5.02 1.56,-1.06 5.96,-0.57 9.37,-0.2 z"
         id="path55"
         style="fill:none;fill-opacity:1;stroke:#000000;stroke-width:0.0927202;stroke-dasharray:none;stroke-opacity:1" /></g></g></svg>
